<svg width="458" height="429" viewBox="0 0 458 429" fill="none" xmlns="http://www.w3.org/2000/svg">
<rect x="30.5" y="1.50244" width="397" height="397" fill="white" stroke="black" stroke-width="3"/>
<line x1="129.5" y1="0.00244141" x2="129.5" y2="400.002" stroke="black"/>
<line x1="179.5" y1="0.00244141" x2="179.5" y2="400.002" stroke="black"/>
<line x1="229.5" y1="0.00244141" x2="229.5" y2="400.002" stroke="black"/>
<line x1="279.5" y1="0.00244141" x2="279.5" y2="400.002" stroke="black"/>
<line x1="328.5" y1="0.00244141" x2="328.5" y2="400.002" stroke="black"/>
<line x1="378.5" y1="0.00244141" x2="378.5" y2="400.002" stroke="black"/>
<line x1="78.5269" x2="78.5269" y2="400.005" stroke="black"/>
<line x1="29" y1="49.5024" x2="429" y2="49.5024" stroke="black"/>
<line x1="29" y1="99.5024" x2="429" y2="99.5024" stroke="black"/>
<line x1="29" y1="149.502" x2="429" y2="149.502" stroke="black"/>
<line x1="29" y1="199.502" x2="429" y2="199.502" stroke="black"/>
<line x1="29" y1="249.502" x2="429" y2="249.502" stroke="black"/>
<line x1="29" y1="299.502" x2="429" y2="299.502" stroke="black"/>
<line x1="29" y1="349.502" x2="429" y2="349.502" stroke="black"/>
<line x1="29" y1="399.502" x2="429" y2="399.502" stroke="black"/>
<path d="M53.5 33.0024H48.1136V15.5479H53.7386C55.4318 15.5479 56.8807 15.8973 58.0852 16.5962C59.2898 17.2894 60.2131 18.2865 60.8551 19.5877C61.4972 20.8831 61.8182 22.4343 61.8182 24.2411C61.8182 26.0593 61.4943 27.6246 60.8466 28.9371C60.1989 30.2439 59.2557 31.2496 58.017 31.9541C56.7784 32.653 55.2727 33.0024 53.5 33.0024ZM50.2273 31.1274H53.3636C54.8068 31.1274 56.0028 30.849 56.9517 30.2922C57.9006 29.7354 58.608 28.9428 59.0739 27.9144C59.5398 26.886 59.7727 25.6615 59.7727 24.2411C59.7727 22.832 59.5426 21.6189 59.0824 20.6019C58.6222 19.5791 57.9347 18.7951 57.0199 18.2496C56.1051 17.6985 54.9659 17.4229 53.6023 17.4229H50.2273V31.1274Z" fill="black"/>
<path d="M101.284 33.0024L96.5114 15.5479H98.6591L102.307 29.7638H102.477L106.193 15.5479H108.58L112.295 29.7638H112.466L116.114 15.5479H118.261L113.489 33.0024H111.307L107.455 19.0933H107.318L103.466 33.0024H101.284Z" fill="black"/>
<path d="M147.114 33.0024V15.5479H153.011C154.375 15.5479 155.494 15.7808 156.369 16.2468C157.244 16.707 157.892 17.3405 158.312 18.1473C158.733 18.9541 158.943 19.8718 158.943 20.9002C158.943 21.9286 158.733 22.8405 158.312 23.636C157.892 24.4314 157.247 25.0564 156.378 25.511C155.509 25.9598 154.398 26.1843 153.045 26.1843H148.273V24.2752H152.977C153.909 24.2752 154.659 24.1388 155.227 23.8661C155.801 23.5934 156.216 23.207 156.472 22.707C156.733 22.2013 156.864 21.599 156.864 20.9002C156.864 20.2013 156.733 19.5905 156.472 19.0678C156.21 18.5451 155.793 18.1416 155.219 17.8576C154.645 17.5678 153.886 17.4229 152.943 17.4229H149.227V33.0024H147.114ZM155.33 25.1615L159.625 33.0024H157.17L152.943 25.1615H155.33Z" fill="black"/>
<path d="M197.114 33.0024V15.5479H203.011C204.381 15.5479 205.5 15.7951 206.369 16.2894C207.244 16.778 207.892 17.4399 208.312 18.2752C208.733 19.1104 208.943 20.0422 208.943 21.0706C208.943 22.099 208.733 23.0337 208.312 23.8746C207.898 24.7155 207.256 25.386 206.386 25.886C205.517 26.3803 204.403 26.6274 203.045 26.6274H198.818V24.7524H202.977C203.915 24.7524 204.668 24.5905 205.236 24.2666C205.804 23.9428 206.216 23.5053 206.472 22.9541C206.733 22.3973 206.864 21.7695 206.864 21.0706C206.864 20.3718 206.733 19.7468 206.472 19.1956C206.216 18.6445 205.801 18.2127 205.227 17.9002C204.653 17.582 203.892 17.4229 202.943 17.4229H199.227V33.0024H197.114Z" fill="black"/>
<path d="M250.284 33.0024L245.511 15.5479H247.659L251.307 29.7638H251.477L255.193 15.5479H257.58L261.295 29.7638H261.466L265.114 15.5479H267.261L262.489 33.0024H260.307L256.455 19.0933H256.318L252.466 33.0024H250.284Z" fill="black"/>
<path d="M297.83 33.0024H295.614L302.023 15.5479H304.205L310.614 33.0024H308.398L303.182 18.3093H303.045L297.83 33.0024ZM298.648 26.1843H307.58V28.0593H298.648V26.1843Z" fill="black"/>
<path d="M346.114 33.0024V15.5479H352.216C353.432 15.5479 354.435 15.7581 355.224 16.1786C356.014 16.5933 356.602 17.153 356.989 17.8576C357.375 18.5564 357.568 19.332 357.568 20.1843C357.568 20.9343 357.435 21.5536 357.168 22.0422C356.906 22.5309 356.56 22.9172 356.128 23.2013C355.702 23.4854 355.239 23.6956 354.739 23.832V24.0024C355.273 24.0365 355.81 24.224 356.349 24.5649C356.889 24.9059 357.341 25.3945 357.705 26.0309C358.068 26.6672 358.25 27.4456 358.25 28.3661C358.25 29.2411 358.051 30.028 357.653 30.7269C357.256 31.4257 356.628 31.9797 355.77 32.3888C354.912 32.7979 353.795 33.0024 352.42 33.0024H346.114ZM348.227 31.1274H352.42C353.801 31.1274 354.781 30.8604 355.361 30.3263C355.946 29.7865 356.239 29.1331 356.239 28.3661C356.239 27.7752 356.088 27.2297 355.787 26.7297C355.486 26.224 355.057 25.8206 354.5 25.5195C353.943 25.2127 353.284 25.0593 352.523 25.0593H348.227V31.1274ZM348.227 23.2184H352.148C352.784 23.2184 353.358 23.0934 353.869 22.8434C354.386 22.5934 354.795 22.2411 355.097 21.7865C355.403 21.332 355.557 20.7979 355.557 20.1843C355.557 19.4172 355.29 18.7666 354.756 18.2326C354.222 17.6928 353.375 17.4229 352.216 17.4229H348.227V23.2184Z" fill="black"/>
<path d="M396.114 33.0024V15.5479H398.227V31.1274H406.341V33.0024H396.114Z" fill="black"/>
<path d="M48.8295 84.0024H46.6136L53.0227 66.5479H55.2045L61.6136 84.0024H59.3977L54.1818 69.3093H54.0455L48.8295 84.0024ZM49.6477 77.1843H58.5795V79.0593H49.6477V77.1843Z" fill="black"/>
<path d="M101.284 84.0024L96.5114 66.5479H98.6591L102.307 80.7638H102.477L106.193 66.5479H108.58L112.295 80.7638H112.466L116.114 66.5479H118.261L113.489 84.0024H111.307L107.455 70.0933H107.318L103.466 84.0024H101.284Z" fill="black"/>
<path d="M148.136 66.5479L152.636 73.8093H152.773L157.273 66.5479H159.761L154.273 75.2752L159.761 84.0024H157.273L152.773 76.8774H152.636L148.136 84.0024H145.648L151.273 75.2752L145.648 66.5479H148.136Z" fill="black"/>
<path d="M197.114 84.0024V66.5479H203.011C204.375 66.5479 205.494 66.7808 206.369 67.2468C207.244 67.707 207.892 68.3405 208.312 69.1473C208.733 69.9541 208.943 70.8718 208.943 71.9002C208.943 72.9286 208.733 73.8405 208.312 74.636C207.892 75.4314 207.247 76.0564 206.378 76.511C205.509 76.9598 204.398 77.1843 203.045 77.1843H198.273V75.2752H202.977C203.909 75.2752 204.659 75.1388 205.227 74.8661C205.801 74.5934 206.216 74.207 206.472 73.707C206.733 73.2013 206.864 72.599 206.864 71.9002C206.864 71.2013 206.733 70.5905 206.472 70.0678C206.21 69.5451 205.793 69.1416 205.219 68.8576C204.645 68.5678 203.886 68.4229 202.943 68.4229H199.227V84.0024H197.114ZM205.33 76.1615L209.625 84.0024H207.17L202.943 76.1615H205.33Z" fill="black"/>
<path d="M261.159 72.0024H259.045C258.92 71.3945 258.702 70.8604 258.389 70.4002C258.082 69.9399 257.707 69.5536 257.264 69.2411C256.827 68.9229 256.341 68.6843 255.807 68.5252C255.273 68.3661 254.716 68.2865 254.136 68.2865C253.08 68.2865 252.122 68.5536 251.264 69.0877C250.412 69.6218 249.733 70.4087 249.227 71.4485C248.727 72.4882 248.477 73.7638 248.477 75.2752C248.477 76.7865 248.727 78.0621 249.227 79.1019C249.733 80.1416 250.412 80.9286 251.264 81.4627C252.122 81.9968 253.08 82.2638 254.136 82.2638C254.716 82.2638 255.273 82.1843 255.807 82.0252C256.341 81.8661 256.827 81.6303 257.264 81.3178C257.707 80.9996 258.082 80.6104 258.389 80.1502C258.702 79.6843 258.92 79.1502 259.045 78.5479H261.159C261 79.4399 260.71 80.2382 260.29 80.9428C259.869 81.6473 259.347 82.2468 258.722 82.7411C258.097 83.2297 257.395 83.6019 256.616 83.8576C255.844 84.1132 255.017 84.2411 254.136 84.2411C252.648 84.2411 251.324 83.8774 250.165 83.1502C249.006 82.4229 248.094 81.3888 247.429 80.0479C246.764 78.707 246.432 77.1161 246.432 75.2752C246.432 73.4343 246.764 71.8434 247.429 70.5024C248.094 69.1615 249.006 68.1274 250.165 67.4002C251.324 66.6729 252.648 66.3093 254.136 66.3093C255.017 66.3093 255.844 66.4371 256.616 66.6928C257.395 66.9485 258.097 67.3235 258.722 67.8178C259.347 68.3064 259.869 68.903 260.29 69.6076C260.71 70.3064 261 71.1047 261.159 72.0024Z" fill="black"/>
<path d="M306.659 70.9115C306.557 70.0479 306.142 69.3774 305.415 68.9002C304.688 68.4229 303.795 68.1843 302.739 68.1843C301.966 68.1843 301.29 68.3093 300.71 68.5593C300.136 68.8093 299.688 69.153 299.364 69.5905C299.045 70.028 298.886 70.5252 298.886 71.082C298.886 71.5479 298.997 71.9485 299.219 72.2837C299.446 72.6132 299.736 72.8888 300.088 73.1104C300.44 73.3263 300.81 73.5053 301.196 73.6473C301.582 73.7837 301.938 73.8945 302.261 73.9797L304.034 74.457C304.489 74.5763 304.994 74.7411 305.551 74.9513C306.114 75.1615 306.651 75.4485 307.162 75.8121C307.679 76.1701 308.105 76.6303 308.44 77.1928C308.776 77.7553 308.943 78.4456 308.943 79.2638C308.943 80.207 308.696 81.0593 308.202 81.8206C307.713 82.582 306.997 83.1871 306.054 83.636C305.116 84.0848 303.977 84.3093 302.636 84.3093C301.386 84.3093 300.304 84.1076 299.389 83.7041C298.48 83.3007 297.764 82.7382 297.241 82.0166C296.724 81.2951 296.432 80.457 296.364 79.5024H298.545C298.602 80.1615 298.824 80.707 299.21 81.1388C299.602 81.5649 300.097 81.8831 300.693 82.0934C301.295 82.2979 301.943 82.4002 302.636 82.4002C303.443 82.4002 304.168 82.2695 304.81 82.0081C305.452 81.7411 305.96 81.3718 306.335 80.9002C306.71 80.4229 306.898 79.8661 306.898 79.2297C306.898 78.6502 306.736 78.1786 306.412 77.8149C306.088 77.4513 305.662 77.1559 305.134 76.9286C304.605 76.7013 304.034 76.5024 303.42 76.332L301.273 75.7184C299.909 75.3263 298.83 74.7666 298.034 74.0394C297.239 73.3121 296.841 72.3604 296.841 71.1843C296.841 70.207 297.105 69.3547 297.634 68.6274C298.168 67.8945 298.884 67.3263 299.781 66.9229C300.685 66.5138 301.693 66.3093 302.807 66.3093C303.932 66.3093 304.932 66.511 305.807 66.9144C306.682 67.3121 307.375 67.8576 307.886 68.5507C308.403 69.2439 308.676 70.0308 308.705 70.9115H306.659Z" fill="black"/>
<path d="M349.284 84.0024L344.511 66.5479H346.659L350.307 80.7638H350.477L354.193 66.5479H356.58L360.295 80.7638H360.466L364.114 66.5479H366.261L361.489 84.0024H359.307L355.455 70.0933H355.318L351.466 84.0024H349.284Z" fill="black"/>
<path d="M395.159 68.4229V66.5479H408.25V68.4229H402.761V84.0024H400.648V68.4229H395.159Z" fill="black"/>
<path d="M53.5 134.002H48.1136V116.548H53.7386C55.4318 116.548 56.8807 116.897 58.0852 117.596C59.2898 118.289 60.2131 119.287 60.8551 120.588C61.4972 121.883 61.8182 123.434 61.8182 125.241C61.8182 127.059 61.4943 128.625 60.8466 129.937C60.1989 131.244 59.2557 132.25 58.017 132.954C56.7784 133.653 55.2727 134.002 53.5 134.002ZM50.2273 132.127H53.3636C54.8068 132.127 56.0028 131.849 56.9517 131.292C57.9006 130.735 58.608 129.943 59.0739 128.914C59.5398 127.886 59.7727 126.662 59.7727 125.241C59.7727 123.832 59.5426 122.619 59.0824 121.602C58.6222 120.579 57.9347 119.795 57.0199 119.25C56.1051 118.698 54.9659 118.423 53.6023 118.423H50.2273V132.127Z" fill="black"/>
<path d="M98.1136 134.002V116.548H104.216C105.432 116.548 106.435 116.758 107.224 117.179C108.014 117.593 108.602 118.153 108.989 118.858C109.375 119.556 109.568 120.332 109.568 121.184C109.568 121.934 109.435 122.554 109.168 123.042C108.906 123.531 108.56 123.917 108.128 124.201C107.702 124.485 107.239 124.696 106.739 124.832V125.002C107.273 125.037 107.81 125.224 108.349 125.565C108.889 125.906 109.341 126.394 109.705 127.031C110.068 127.667 110.25 128.446 110.25 129.366C110.25 130.241 110.051 131.028 109.653 131.727C109.256 132.426 108.628 132.98 107.77 133.389C106.912 133.798 105.795 134.002 104.42 134.002H98.1136ZM100.227 132.127H104.42C105.801 132.127 106.781 131.86 107.361 131.326C107.946 130.787 108.239 130.133 108.239 129.366C108.239 128.775 108.088 128.23 107.787 127.73C107.486 127.224 107.057 126.821 106.5 126.519C105.943 126.213 105.284 126.059 104.523 126.059H100.227V132.127ZM100.227 124.218H104.148C104.784 124.218 105.358 124.093 105.869 123.843C106.386 123.593 106.795 123.241 107.097 122.787C107.403 122.332 107.557 121.798 107.557 121.184C107.557 120.417 107.29 119.767 106.756 119.233C106.222 118.693 105.375 118.423 104.216 118.423H100.227V124.218Z" fill="black"/>
<path d="M147.114 116.548H149.636L155.568 131.037H155.773L161.705 116.548H164.227V134.002H162.25V120.741H162.08L156.625 134.002H154.716L149.261 120.741H149.091V134.002H147.114V116.548Z" fill="black"/>
<path d="M197.114 134.002V116.548H199.227V124.321H208.534V116.548H210.648V134.002H208.534V126.196H199.227V134.002H197.114Z" fill="black"/>
<path d="M252.5 134.002H247.114V116.548H252.739C254.432 116.548 255.881 116.897 257.085 117.596C258.29 118.289 259.213 119.287 259.855 120.588C260.497 121.883 260.818 123.434 260.818 125.241C260.818 127.059 260.494 128.625 259.847 129.937C259.199 131.244 258.256 132.25 257.017 132.954C255.778 133.653 254.273 134.002 252.5 134.002ZM249.227 132.127H252.364C253.807 132.127 255.003 131.849 255.952 131.292C256.901 130.735 257.608 129.943 258.074 128.914C258.54 127.886 258.773 126.662 258.773 125.241C258.773 123.832 258.543 122.619 258.082 121.602C257.622 120.579 256.935 119.795 256.02 119.25C255.105 118.698 253.966 118.423 252.602 118.423H249.227V132.127Z" fill="black"/>
<path d="M296.159 118.423V116.548H309.25V118.423H303.761V134.002H301.648V118.423H296.159Z" fill="black"/>
<path d="M358.045 122.002C357.858 121.429 357.611 120.914 357.304 120.46C357.003 120 356.642 119.608 356.222 119.284C355.807 118.96 355.335 118.713 354.807 118.542C354.278 118.372 353.699 118.287 353.068 118.287C352.034 118.287 351.094 118.554 350.247 119.088C349.401 119.622 348.727 120.409 348.227 121.448C347.727 122.488 347.477 123.764 347.477 125.275C347.477 126.787 347.73 128.062 348.236 129.102C348.741 130.142 349.426 130.929 350.29 131.463C351.153 131.997 352.125 132.264 353.205 132.264C354.205 132.264 355.085 132.051 355.847 131.625C356.614 131.193 357.21 130.585 357.636 129.801C358.068 129.011 358.284 128.082 358.284 127.014L358.932 127.15H353.682V125.275H360.33V127.15C360.33 128.588 360.023 129.838 359.409 130.9C358.801 131.963 357.96 132.787 356.886 133.372C355.818 133.951 354.591 134.241 353.205 134.241C351.659 134.241 350.301 133.877 349.131 133.15C347.966 132.423 347.057 131.389 346.403 130.048C345.756 128.707 345.432 127.116 345.432 125.275C345.432 123.894 345.616 122.653 345.986 121.551C346.361 120.443 346.889 119.5 347.571 118.721C348.253 117.943 349.06 117.346 349.991 116.931C350.923 116.517 351.949 116.309 353.068 116.309C353.989 116.309 354.847 116.448 355.642 116.727C356.443 117 357.156 117.389 357.781 117.894C358.412 118.394 358.938 118.994 359.358 119.693C359.778 120.386 360.068 121.156 360.227 122.002H358.045Z" fill="black"/>
<path d="M396.114 134.002V116.548H402.011C403.375 116.548 404.494 116.781 405.369 117.247C406.244 117.707 406.892 118.341 407.312 119.147C407.733 119.954 407.943 120.872 407.943 121.9C407.943 122.929 407.733 123.841 407.312 124.636C406.892 125.431 406.247 126.056 405.378 126.511C404.509 126.96 403.398 127.184 402.045 127.184H397.273V125.275H401.977C402.909 125.275 403.659 125.139 404.227 124.866C404.801 124.593 405.216 124.207 405.472 123.707C405.733 123.201 405.864 122.599 405.864 121.9C405.864 121.201 405.733 120.591 405.472 120.068C405.21 119.545 404.793 119.142 404.219 118.858C403.645 118.568 402.886 118.423 401.943 118.423H398.227V134.002H396.114ZM404.33 126.162L408.625 134.002H406.17L401.943 126.162H404.33Z" fill="black"/>
<path d="M60.0455 171.002C59.858 170.429 59.6108 169.914 59.304 169.46C59.0028 169 58.642 168.608 58.2216 168.284C57.8068 167.96 57.3352 167.713 56.8068 167.542C56.2784 167.372 55.6989 167.287 55.0682 167.287C54.0341 167.287 53.0938 167.554 52.2472 168.088C51.4006 168.622 50.7273 169.409 50.2273 170.448C49.7273 171.488 49.4773 172.764 49.4773 174.275C49.4773 175.787 49.7301 177.062 50.2358 178.102C50.7415 179.142 51.4261 179.929 52.2898 180.463C53.1534 180.997 54.125 181.264 55.2045 181.264C56.2045 181.264 57.0852 181.051 57.8466 180.625C58.6136 180.193 59.2102 179.585 59.6364 178.801C60.0682 178.011 60.2841 177.082 60.2841 176.014L60.9318 176.15H55.6818V174.275H62.3295V176.15C62.3295 177.588 62.0227 178.838 61.4091 179.9C60.8011 180.963 59.9602 181.787 58.8864 182.372C57.8182 182.951 56.5909 183.241 55.2045 183.241C53.6591 183.241 52.3011 182.877 51.1307 182.15C49.9659 181.423 49.0568 180.389 48.4034 179.048C47.7557 177.707 47.4318 176.116 47.4318 174.275C47.4318 172.894 47.6165 171.653 47.9858 170.551C48.3608 169.443 48.8892 168.5 49.571 167.721C50.2528 166.943 51.0597 166.346 51.9915 165.931C52.9233 165.517 53.9489 165.309 55.0682 165.309C55.9886 165.309 56.8466 165.448 57.642 165.727C58.4432 166 59.1562 166.389 59.7812 166.894C60.4119 167.394 60.9375 167.994 61.358 168.693C61.7784 169.386 62.0682 170.156 62.2273 171.002H60.0455Z" fill="black"/>
<path d="M112.662 171.437H109.474C109.384 170.914 109.216 170.451 108.972 170.048C108.727 169.639 108.423 169.292 108.06 169.008C107.696 168.724 107.281 168.511 106.815 168.369C106.355 168.221 105.858 168.147 105.324 168.147C104.375 168.147 103.534 168.386 102.801 168.863C102.068 169.335 101.494 170.028 101.08 170.943C100.665 171.852 100.457 172.963 100.457 174.275C100.457 175.61 100.665 176.735 101.08 177.65C101.5 178.559 102.074 179.247 102.801 179.713C103.534 180.173 104.372 180.403 105.315 180.403C105.838 180.403 106.327 180.335 106.781 180.198C107.241 180.056 107.653 179.849 108.017 179.576C108.386 179.304 108.696 178.968 108.946 178.571C109.202 178.173 109.378 177.718 109.474 177.207L112.662 177.224C112.543 178.054 112.284 178.832 111.886 179.559C111.494 180.287 110.98 180.929 110.344 181.485C109.707 182.037 108.963 182.468 108.111 182.781C107.259 183.088 106.313 183.241 105.273 183.241C103.739 183.241 102.369 182.886 101.165 182.176C99.9602 181.466 99.0114 180.44 98.3182 179.099C97.625 177.758 97.2784 176.15 97.2784 174.275C97.2784 172.394 97.6278 170.787 98.3267 169.451C99.0256 168.11 99.9773 167.085 101.182 166.375C102.386 165.664 103.75 165.309 105.273 165.309C106.244 165.309 107.148 165.446 107.983 165.718C108.818 165.991 109.563 166.392 110.216 166.92C110.869 167.443 111.406 168.085 111.827 168.846C112.253 169.602 112.531 170.466 112.662 171.437Z" fill="#24B93C"/>
<path d="M147.114 183.002V165.548H153.216C154.432 165.548 155.435 165.758 156.224 166.179C157.014 166.593 157.602 167.153 157.989 167.858C158.375 168.556 158.568 169.332 158.568 170.184C158.568 170.934 158.435 171.554 158.168 172.042C157.906 172.531 157.56 172.917 157.128 173.201C156.702 173.485 156.239 173.696 155.739 173.832V174.002C156.273 174.037 156.81 174.224 157.349 174.565C157.889 174.906 158.341 175.394 158.705 176.031C159.068 176.667 159.25 177.446 159.25 178.366C159.25 179.241 159.051 180.028 158.653 180.727C158.256 181.426 157.628 181.98 156.77 182.389C155.912 182.798 154.795 183.002 153.42 183.002H147.114ZM149.227 181.127H153.42C154.801 181.127 155.781 180.86 156.361 180.326C156.946 179.787 157.239 179.133 157.239 178.366C157.239 177.775 157.088 177.23 156.787 176.73C156.486 176.224 156.057 175.821 155.5 175.519C154.943 175.213 154.284 175.059 153.523 175.059H149.227V181.127ZM149.227 173.218H153.148C153.784 173.218 154.358 173.093 154.869 172.843C155.386 172.593 155.795 172.241 156.097 171.787C156.403 171.332 156.557 170.798 156.557 170.184C156.557 169.417 156.29 168.767 155.756 168.233C155.222 167.693 154.375 167.423 153.216 167.423H149.227V173.218Z" fill="black"/>
<path d="M209.045 171.002C208.858 170.429 208.611 169.914 208.304 169.46C208.003 169 207.642 168.608 207.222 168.284C206.807 167.96 206.335 167.713 205.807 167.542C205.278 167.372 204.699 167.287 204.068 167.287C203.034 167.287 202.094 167.554 201.247 168.088C200.401 168.622 199.727 169.409 199.227 170.448C198.727 171.488 198.477 172.764 198.477 174.275C198.477 175.787 198.73 177.062 199.236 178.102C199.741 179.142 200.426 179.929 201.29 180.463C202.153 180.997 203.125 181.264 204.205 181.264C205.205 181.264 206.085 181.051 206.847 180.625C207.614 180.193 208.21 179.585 208.636 178.801C209.068 178.011 209.284 177.082 209.284 176.014L209.932 176.15H204.682V174.275H211.33V176.15C211.33 177.588 211.023 178.838 210.409 179.9C209.801 180.963 208.96 181.787 207.886 182.372C206.818 182.951 205.591 183.241 204.205 183.241C202.659 183.241 201.301 182.877 200.131 182.15C198.966 181.423 198.057 180.389 197.403 179.048C196.756 177.707 196.432 176.116 196.432 174.275C196.432 172.894 196.616 171.653 196.986 170.551C197.361 169.443 197.889 168.5 198.571 167.721C199.253 166.943 200.06 166.346 200.991 165.931C201.923 165.517 202.949 165.309 204.068 165.309C204.989 165.309 205.847 165.448 206.642 165.727C207.443 166 208.156 166.389 208.781 166.894C209.412 167.394 209.938 167.994 210.358 168.693C210.778 169.386 211.068 170.156 211.227 171.002H209.045Z" fill="black"/>
<path d="M247.114 183.002V165.548H257.58V167.423H249.227V173.321H256.795V175.196H249.227V183.002H247.114Z" fill="black"/>
<path d="M306.659 169.912C306.557 169.048 306.142 168.377 305.415 167.9C304.688 167.423 303.795 167.184 302.739 167.184C301.966 167.184 301.29 167.309 300.71 167.559C300.136 167.809 299.688 168.153 299.364 168.591C299.045 169.028 298.886 169.525 298.886 170.082C298.886 170.548 298.997 170.948 299.219 171.284C299.446 171.613 299.736 171.889 300.088 172.11C300.44 172.326 300.81 172.505 301.196 172.647C301.582 172.784 301.938 172.894 302.261 172.98L304.034 173.457C304.489 173.576 304.994 173.741 305.551 173.951C306.114 174.162 306.651 174.448 307.162 174.812C307.679 175.17 308.105 175.63 308.44 176.193C308.776 176.755 308.943 177.446 308.943 178.264C308.943 179.207 308.696 180.059 308.202 180.821C307.713 181.582 306.997 182.187 306.054 182.636C305.116 183.085 303.977 183.309 302.636 183.309C301.386 183.309 300.304 183.108 299.389 182.704C298.48 182.301 297.764 181.738 297.241 181.017C296.724 180.295 296.432 179.457 296.364 178.502H298.545C298.602 179.162 298.824 179.707 299.21 180.139C299.602 180.565 300.097 180.883 300.693 181.093C301.295 181.298 301.943 181.4 302.636 181.4C303.443 181.4 304.168 181.269 304.81 181.008C305.452 180.741 305.96 180.372 306.335 179.9C306.71 179.423 306.898 178.866 306.898 178.23C306.898 177.65 306.736 177.179 306.412 176.815C306.088 176.451 305.662 176.156 305.134 175.929C304.605 175.701 304.034 175.502 303.42 175.332L301.273 174.718C299.909 174.326 298.83 173.767 298.034 173.039C297.239 172.312 296.841 171.36 296.841 170.184C296.841 169.207 297.105 168.355 297.634 167.627C298.168 166.894 298.884 166.326 299.781 165.923C300.685 165.514 301.693 165.309 302.807 165.309C303.932 165.309 304.932 165.511 305.807 165.914C306.682 166.312 307.375 166.858 307.886 167.551C308.403 168.244 308.676 169.031 308.705 169.912H306.659Z" fill="black"/>
<path d="M358.045 171.002C357.858 170.429 357.611 169.914 357.304 169.46C357.003 169 356.642 168.608 356.222 168.284C355.807 167.96 355.335 167.713 354.807 167.542C354.278 167.372 353.699 167.287 353.068 167.287C352.034 167.287 351.094 167.554 350.247 168.088C349.401 168.622 348.727 169.409 348.227 170.448C347.727 171.488 347.477 172.764 347.477 174.275C347.477 175.787 347.73 177.062 348.236 178.102C348.741 179.142 349.426 179.929 350.29 180.463C351.153 180.997 352.125 181.264 353.205 181.264C354.205 181.264 355.085 181.051 355.847 180.625C356.614 180.193 357.21 179.585 357.636 178.801C358.068 178.011 358.284 177.082 358.284 176.014L358.932 176.15H353.682V174.275H360.33V176.15C360.33 177.588 360.023 178.838 359.409 179.9C358.801 180.963 357.96 181.787 356.886 182.372C355.818 182.951 354.591 183.241 353.205 183.241C351.659 183.241 350.301 182.877 349.131 182.15C347.966 181.423 347.057 180.389 346.403 179.048C345.756 177.707 345.432 176.116 345.432 174.275C345.432 172.894 345.616 171.653 345.986 170.551C346.361 169.443 346.889 168.5 347.571 167.721C348.253 166.943 349.06 166.346 349.991 165.931C350.923 165.517 351.949 165.309 353.068 165.309C353.989 165.309 354.847 165.448 355.642 165.727C356.443 166 357.156 166.389 357.781 166.894C358.412 167.394 358.938 167.994 359.358 168.693C359.778 169.386 360.068 170.156 360.227 171.002H358.045Z" fill="black"/>
<path d="M405.659 169.912C405.557 169.048 405.142 168.377 404.415 167.9C403.688 167.423 402.795 167.184 401.739 167.184C400.966 167.184 400.29 167.309 399.71 167.559C399.136 167.809 398.688 168.153 398.364 168.591C398.045 169.028 397.886 169.525 397.886 170.082C397.886 170.548 397.997 170.948 398.219 171.284C398.446 171.613 398.736 171.889 399.088 172.11C399.44 172.326 399.81 172.505 400.196 172.647C400.582 172.784 400.938 172.894 401.261 172.98L403.034 173.457C403.489 173.576 403.994 173.741 404.551 173.951C405.114 174.162 405.651 174.448 406.162 174.812C406.679 175.17 407.105 175.63 407.44 176.193C407.776 176.755 407.943 177.446 407.943 178.264C407.943 179.207 407.696 180.059 407.202 180.821C406.713 181.582 405.997 182.187 405.054 182.636C404.116 183.085 402.977 183.309 401.636 183.309C400.386 183.309 399.304 183.108 398.389 182.704C397.48 182.301 396.764 181.738 396.241 181.017C395.724 180.295 395.432 179.457 395.364 178.502H397.545C397.602 179.162 397.824 179.707 398.21 180.139C398.602 180.565 399.097 180.883 399.693 181.093C400.295 181.298 400.943 181.4 401.636 181.4C402.443 181.4 403.168 181.269 403.81 181.008C404.452 180.741 404.96 180.372 405.335 179.9C405.71 179.423 405.898 178.866 405.898 178.23C405.898 177.65 405.736 177.179 405.412 176.815C405.088 176.451 404.662 176.156 404.134 175.929C403.605 175.701 403.034 175.502 402.42 175.332L400.273 174.718C398.909 174.326 397.83 173.767 397.034 173.039C396.239 172.312 395.841 171.36 395.841 170.184C395.841 169.207 396.105 168.355 396.634 167.627C397.168 166.894 397.884 166.326 398.781 165.923C399.685 165.514 400.693 165.309 401.807 165.309C402.932 165.309 403.932 165.511 404.807 165.914C405.682 166.312 406.375 166.858 406.886 167.551C407.403 168.244 407.676 169.031 407.705 169.912H405.659Z" fill="black"/>
<path d="M51.2841 234.002L46.5114 216.548H48.6591L52.3068 230.764H52.4773L56.1932 216.548H58.5795L62.2955 230.764H62.4659L66.1136 216.548H68.2614L63.4886 234.002H61.3068L57.4545 220.093H57.3182L53.4659 234.002H51.2841Z" fill="black"/>
<path d="M96.6136 216.548H99.0341L103.875 224.696H104.08L108.92 216.548H111.341L105.034 226.809V234.002H102.92V226.809L96.6136 216.548Z" fill="black"/>
<path d="M162.318 225.275C162.318 227.156 161.966 228.767 161.261 230.108C160.563 231.443 159.608 232.466 158.398 233.176C157.193 233.886 155.827 234.241 154.298 234.241C152.77 234.241 151.401 233.886 150.19 233.176C148.986 232.46 148.031 231.434 147.327 230.099C146.628 228.758 146.278 227.15 146.278 225.275C146.278 223.394 146.628 221.787 147.327 220.451C148.031 219.11 148.986 218.085 150.19 217.375C151.401 216.664 152.77 216.309 154.298 216.309C155.827 216.309 157.193 216.664 158.398 217.375C159.608 218.085 160.563 219.11 161.261 220.451C161.966 221.787 162.318 223.394 162.318 225.275ZM159.139 225.275C159.139 223.951 158.932 222.835 158.517 221.926C158.108 221.011 157.54 220.321 156.812 219.855C156.085 219.383 155.247 219.147 154.298 219.147C153.349 219.147 152.511 219.383 151.784 219.855C151.057 220.321 150.486 221.011 150.071 221.926C149.662 222.835 149.457 223.951 149.457 225.275C149.457 226.599 149.662 227.718 150.071 228.633C150.486 229.542 151.057 230.233 151.784 230.704C152.511 231.17 153.349 231.403 154.298 231.403C155.247 231.403 156.085 231.17 156.812 230.704C157.54 230.233 158.108 229.542 158.517 228.633C158.932 227.718 159.139 226.599 159.139 225.275Z" fill="#24B93C"/>
<path d="M197.114 234.002V216.548H203.011C204.375 216.548 205.494 216.781 206.369 217.247C207.244 217.707 207.892 218.341 208.312 219.147C208.733 219.954 208.943 220.872 208.943 221.9C208.943 222.929 208.733 223.841 208.312 224.636C207.892 225.431 207.247 226.056 206.378 226.511C205.509 226.96 204.398 227.184 203.045 227.184H198.273V225.275H202.977C203.909 225.275 204.659 225.139 205.227 224.866C205.801 224.593 206.216 224.207 206.472 223.707C206.733 223.201 206.864 222.599 206.864 221.9C206.864 221.201 206.733 220.591 206.472 220.068C206.21 219.545 205.793 219.142 205.219 218.858C204.645 218.568 203.886 218.423 202.943 218.423H199.227V234.002H197.114ZM205.33 226.162L209.625 234.002H207.17L202.943 226.162H205.33Z" fill="black"/>
<path d="M247.114 234.002V216.548H257.58V218.423H249.227V224.321H256.795V226.196H249.227V234.002H247.114Z" fill="black"/>
<path d="M297.114 234.002V216.548H299.227V225.207H299.432L307.273 216.548H310.034L302.705 224.423L310.034 234.002H307.477L301.409 225.889L299.227 228.343V234.002H297.114Z" fill="black"/>
<path d="M346.114 234.002V216.548H348.227V232.127H356.341V234.002H346.114Z" fill="black"/>
<path d="M399.284 234.002L394.511 216.548H396.659L400.307 230.764H400.477L404.193 216.548H406.58L410.295 230.764H410.466L414.114 216.548H416.261L411.489 234.002H409.307L405.455 220.093H405.318L401.466 234.002H399.284Z" fill="black"/>
<path d="M53.5 284.002H48.1136V266.548H53.7386C55.4318 266.548 56.8807 266.897 58.0852 267.596C59.2898 268.289 60.2131 269.287 60.8551 270.588C61.4972 271.883 61.8182 273.434 61.8182 275.241C61.8182 277.059 61.4943 278.625 60.8466 279.937C60.1989 281.244 59.2557 282.25 58.017 282.954C56.7784 283.653 55.2727 284.002 53.5 284.002ZM50.2273 282.127H53.3636C54.8068 282.127 56.0028 281.849 56.9517 281.292C57.9006 280.735 58.608 279.943 59.0739 278.914C59.5398 277.886 59.7727 276.662 59.7727 275.241C59.7727 273.832 59.5426 272.619 59.0824 271.602C58.6222 270.579 57.9347 269.795 57.0199 269.25C56.1051 268.698 54.9659 268.423 53.6023 268.423H50.2273V282.127Z" fill="black"/>
<path d="M98.8295 284.002H96.6136L103.023 266.548H105.205L111.614 284.002H109.398L104.182 269.309H104.045L98.8295 284.002ZM99.6477 277.184H108.58V279.059H99.6477V277.184Z" fill="black"/>
<path d="M156.659 270.912C156.557 270.048 156.142 269.377 155.415 268.9C154.688 268.423 153.795 268.184 152.739 268.184C151.966 268.184 151.29 268.309 150.71 268.559C150.136 268.809 149.688 269.153 149.364 269.591C149.045 270.028 148.886 270.525 148.886 271.082C148.886 271.548 148.997 271.948 149.219 272.284C149.446 272.613 149.736 272.889 150.088 273.11C150.44 273.326 150.81 273.505 151.196 273.647C151.582 273.784 151.938 273.894 152.261 273.98L154.034 274.457C154.489 274.576 154.994 274.741 155.551 274.951C156.114 275.162 156.651 275.448 157.162 275.812C157.679 276.17 158.105 276.63 158.44 277.193C158.776 277.755 158.943 278.446 158.943 279.264C158.943 280.207 158.696 281.059 158.202 281.821C157.713 282.582 156.997 283.187 156.054 283.636C155.116 284.085 153.977 284.309 152.636 284.309C151.386 284.309 150.304 284.108 149.389 283.704C148.48 283.301 147.764 282.738 147.241 282.017C146.724 281.295 146.432 280.457 146.364 279.502H148.545C148.602 280.162 148.824 280.707 149.21 281.139C149.602 281.565 150.097 281.883 150.693 282.093C151.295 282.298 151.943 282.4 152.636 282.4C153.443 282.4 154.168 282.269 154.81 282.008C155.452 281.741 155.96 281.372 156.335 280.9C156.71 280.423 156.898 279.866 156.898 279.23C156.898 278.65 156.736 278.179 156.412 277.815C156.088 277.451 155.662 277.156 155.134 276.929C154.605 276.701 154.034 276.502 153.42 276.332L151.273 275.718C149.909 275.326 148.83 274.767 148.034 274.039C147.239 273.312 146.841 272.36 146.841 271.184C146.841 270.207 147.105 269.355 147.634 268.627C148.168 267.894 148.884 267.326 149.781 266.923C150.685 266.514 151.693 266.309 152.807 266.309C153.932 266.309 154.932 266.511 155.807 266.914C156.682 267.312 157.375 267.858 157.886 268.551C158.403 269.244 158.676 270.031 158.705 270.912H156.659Z" fill="black"/>
<path d="M202.636 284.002H196.722V266.548H202.756C204.489 266.548 205.977 266.897 207.222 267.596C208.472 268.289 209.432 269.287 210.102 270.588C210.773 271.889 211.108 273.446 211.108 275.258C211.108 277.076 210.77 278.639 210.094 279.946C209.423 281.252 208.455 282.255 207.188 282.954C205.926 283.653 204.409 284.002 202.636 284.002ZM199.884 281.267H202.483C203.699 281.267 204.713 281.045 205.526 280.602C206.338 280.153 206.949 279.485 207.358 278.599C207.767 277.707 207.972 276.593 207.972 275.258C207.972 273.923 207.767 272.815 207.358 271.934C206.949 271.048 206.344 270.386 205.543 269.948C204.747 269.505 203.759 269.284 202.577 269.284H199.884V281.267Z" fill="#24B93C"/>
<path d="M260.955 266.548V284.002H258.909L249.398 270.298H249.227V284.002H247.114V266.548H249.159L258.705 280.287H258.875V266.548H260.955Z" fill="black"/>
<path d="M309.045 272.002C308.858 271.429 308.611 270.914 308.304 270.46C308.003 270 307.642 269.608 307.222 269.284C306.807 268.96 306.335 268.713 305.807 268.542C305.278 268.372 304.699 268.287 304.068 268.287C303.034 268.287 302.094 268.554 301.247 269.088C300.401 269.622 299.727 270.409 299.227 271.448C298.727 272.488 298.477 273.764 298.477 275.275C298.477 276.787 298.73 278.062 299.236 279.102C299.741 280.142 300.426 280.929 301.29 281.463C302.153 281.997 303.125 282.264 304.205 282.264C305.205 282.264 306.085 282.051 306.847 281.625C307.614 281.193 308.21 280.585 308.636 279.801C309.068 279.011 309.284 278.082 309.284 277.014L309.932 277.15H304.682V275.275H311.33V277.15C311.33 278.588 311.023 279.838 310.409 280.9C309.801 281.963 308.96 282.787 307.886 283.372C306.818 283.951 305.591 284.241 304.205 284.241C302.659 284.241 301.301 283.877 300.131 283.15C298.966 282.423 298.057 281.389 297.403 280.048C296.756 278.707 296.432 277.116 296.432 275.275C296.432 273.894 296.616 272.653 296.986 271.551C297.361 270.443 297.889 269.5 298.571 268.721C299.253 267.943 300.06 267.346 300.991 266.931C301.923 266.517 302.949 266.309 304.068 266.309C304.989 266.309 305.847 266.448 306.642 266.727C307.443 267 308.156 267.389 308.781 267.894C309.412 268.394 309.938 268.994 310.358 269.693C310.778 270.386 311.068 271.156 311.227 272.002H309.045Z" fill="black"/>
<path d="M346.114 284.002V266.548H352.011C353.381 266.548 354.5 266.795 355.369 267.289C356.244 267.778 356.892 268.44 357.312 269.275C357.733 270.11 357.943 271.042 357.943 272.071C357.943 273.099 357.733 274.034 357.312 274.875C356.898 275.716 356.256 276.386 355.386 276.886C354.517 277.38 353.403 277.627 352.045 277.627H347.818V275.752H351.977C352.915 275.752 353.668 275.591 354.236 275.267C354.804 274.943 355.216 274.505 355.472 273.954C355.733 273.397 355.864 272.769 355.864 272.071C355.864 271.372 355.733 270.747 355.472 270.196C355.216 269.644 354.801 269.213 354.227 268.9C353.653 268.582 352.892 268.423 351.943 268.423H348.227V284.002H346.114Z" fill="black"/>
<path d="M396.83 284.002H394.614L401.023 266.548H403.205L409.614 284.002H407.398L402.182 269.309H402.045L396.83 284.002ZM397.648 277.184H406.58V279.059H397.648V277.184Z" fill="black"/>
<path d="M57.6591 319.912C57.5568 319.048 57.142 318.377 56.4148 317.9C55.6875 317.423 54.7955 317.184 53.7386 317.184C52.9659 317.184 52.2898 317.309 51.7102 317.559C51.1364 317.809 50.6875 318.153 50.3636 318.591C50.0455 319.028 49.8864 319.525 49.8864 320.082C49.8864 320.548 49.9972 320.948 50.2188 321.284C50.446 321.613 50.7358 321.889 51.0881 322.11C51.4403 322.326 51.8097 322.505 52.196 322.647C52.5824 322.784 52.9375 322.894 53.2614 322.98L55.0341 323.457C55.4886 323.576 55.9943 323.741 56.5511 323.951C57.1136 324.162 57.6506 324.448 58.1619 324.812C58.679 325.17 59.1051 325.63 59.4403 326.193C59.7756 326.755 59.9432 327.446 59.9432 328.264C59.9432 329.207 59.696 330.059 59.2017 330.821C58.7131 331.582 57.9972 332.187 57.054 332.636C56.1165 333.085 54.9773 333.309 53.6364 333.309C52.3864 333.309 51.304 333.108 50.3892 332.704C49.4801 332.301 48.7642 331.738 48.2415 331.017C47.7244 330.295 47.4318 329.457 47.3636 328.502H49.5455C49.6023 329.162 49.8239 329.707 50.2102 330.139C50.6023 330.565 51.0966 330.883 51.6932 331.093C52.2955 331.298 52.9432 331.4 53.6364 331.4C54.4432 331.4 55.1676 331.269 55.8097 331.008C56.4517 330.741 56.9602 330.372 57.3352 329.9C57.7102 329.423 57.8977 328.866 57.8977 328.23C57.8977 327.65 57.7358 327.179 57.4119 326.815C57.0881 326.451 56.6619 326.156 56.1335 325.929C55.6051 325.701 55.0341 325.502 54.4205 325.332L52.2727 324.718C50.9091 324.326 49.8295 323.767 49.0341 323.039C48.2386 322.312 47.8409 321.36 47.8409 320.184C47.8409 319.207 48.1051 318.355 48.6335 317.627C49.1676 316.894 49.8835 316.326 50.7812 315.923C51.6847 315.514 52.6932 315.309 53.8068 315.309C54.9318 315.309 55.9318 315.511 56.8068 315.914C57.6818 316.312 58.375 316.858 58.8864 317.551C59.4034 318.244 59.6761 319.031 59.7045 319.912H57.6591Z" fill="black"/>
<path d="M99.1364 315.548L103.636 322.809H103.773L108.273 315.548H110.761L105.273 324.275L110.761 333.002H108.273L103.773 325.877H103.636L99.1364 333.002H96.6477L102.273 324.275L96.6477 315.548H99.1364Z" fill="black"/>
<path d="M145.614 315.548H148.034L152.875 323.696H153.08L157.92 315.548H160.341L154.034 325.809V333.002H151.92V325.809L145.614 315.548Z" fill="black"/>
<path d="M197.114 315.548H199.636L205.568 330.037H205.773L211.705 315.548H214.227V333.002H212.25V319.741H212.08L206.625 333.002H204.716L199.261 319.741H199.091V333.002H197.114V315.548Z" fill="black"/>
<path d="M246.722 333.002V315.548H258.074V318.198H249.884V322.937H257.486V325.588H249.884V330.352H258.142V333.002H246.722Z" fill="#24B93C"/>
<path d="M300.284 333.002L295.511 315.548H297.659L301.307 329.764H301.477L305.193 315.548H307.58L311.295 329.764H311.466L315.114 315.548H317.261L312.489 333.002H310.307L306.455 319.093H306.318L302.466 333.002H300.284Z" fill="black"/>
<path d="M346.114 333.002V315.548H352.216C353.432 315.548 354.435 315.758 355.224 316.179C356.014 316.593 356.602 317.153 356.989 317.858C357.375 318.556 357.568 319.332 357.568 320.184C357.568 320.934 357.435 321.554 357.168 322.042C356.906 322.531 356.56 322.917 356.128 323.201C355.702 323.485 355.239 323.696 354.739 323.832V324.002C355.273 324.037 355.81 324.224 356.349 324.565C356.889 324.906 357.341 325.394 357.705 326.031C358.068 326.667 358.25 327.446 358.25 328.366C358.25 329.241 358.051 330.028 357.653 330.727C357.256 331.426 356.628 331.98 355.77 332.389C354.912 332.798 353.795 333.002 352.42 333.002H346.114ZM348.227 331.127H352.42C353.801 331.127 354.781 330.86 355.361 330.326C355.946 329.787 356.239 329.133 356.239 328.366C356.239 327.775 356.088 327.23 355.787 326.73C355.486 326.224 355.057 325.821 354.5 325.519C353.943 325.213 353.284 325.059 352.523 325.059H348.227V331.127ZM348.227 323.218H352.148C352.784 323.218 353.358 323.093 353.869 322.843C354.386 322.593 354.795 322.241 355.097 321.787C355.403 321.332 355.557 320.798 355.557 320.184C355.557 319.417 355.29 318.767 354.756 318.233C354.222 317.693 353.375 317.423 352.216 317.423H348.227V323.218Z" fill="black"/>
<path d="M396.114 333.002V315.548H402.011C403.375 315.548 404.494 315.781 405.369 316.247C406.244 316.707 406.892 317.341 407.312 318.147C407.733 318.954 407.943 319.872 407.943 320.9C407.943 321.929 407.733 322.841 407.312 323.636C406.892 324.431 406.247 325.056 405.378 325.511C404.509 325.96 403.398 326.184 402.045 326.184H397.273V324.275H401.977C402.909 324.275 403.659 324.139 404.227 323.866C404.801 323.593 405.216 323.207 405.472 322.707C405.733 322.201 405.864 321.599 405.864 320.9C405.864 320.201 405.733 319.591 405.472 319.068C405.21 318.545 404.793 318.142 404.219 317.858C403.645 317.568 402.886 317.423 401.943 317.423H398.227V333.002H396.114ZM404.33 325.162L408.625 333.002H406.17L401.943 325.162H404.33Z" fill="black"/>
<path d="M48.8295 384.002H46.6136L53.0227 366.548H55.2045L61.6136 384.002H59.3977L54.1818 369.309H54.0455L48.8295 384.002ZM49.6477 377.184H58.5795V379.059H49.6477V377.184Z" fill="black"/>
<path d="M97.5341 384.002V382.468L106.943 368.423H97.4318V366.548H109.466V368.082L100.057 382.127H109.568V384.002H97.5341Z" fill="black"/>
<path d="M160.955 366.548V384.002H158.909L149.398 370.298H149.227V384.002H147.114V366.548H149.159L158.705 380.287H158.875V366.548H160.955Z" fill="black"/>
<path d="M198.136 366.548L202.636 373.809H202.773L207.273 366.548H209.761L204.273 375.275L209.761 384.002H207.273L202.773 376.877H202.636L198.136 384.002H195.648L201.273 375.275L195.648 366.548H198.136Z" fill="black"/>
<path d="M252.5 384.002H247.114V366.548H252.739C254.432 366.548 255.881 366.897 257.085 367.596C258.29 368.289 259.213 369.287 259.855 370.588C260.497 371.883 260.818 373.434 260.818 375.241C260.818 377.059 260.494 378.625 259.847 379.937C259.199 381.244 258.256 382.25 257.017 382.954C255.778 383.653 254.273 384.002 252.5 384.002ZM249.227 382.127H252.364C253.807 382.127 255.003 381.849 255.952 381.292C256.901 380.735 257.608 379.943 258.074 378.914C258.54 377.886 258.773 376.662 258.773 375.241C258.773 373.832 258.543 372.619 258.082 371.602C257.622 370.579 256.935 369.795 256.02 369.25C255.105 368.698 253.966 368.423 252.602 368.423H249.227V382.127Z" fill="black"/>
<path d="M297.114 366.548H299.636L305.568 381.037H305.773L311.705 366.548H314.227V384.002H312.25V370.741H312.08L306.625 384.002H304.716L299.261 370.741H299.091V384.002H297.114V366.548Z" fill="black"/>
<path d="M346.83 366.548L352.011 381.241H352.216L357.398 366.548H359.614L353.205 384.002H351.023L344.614 366.548H346.83Z" fill="black"/>
<path d="M409.955 366.548V384.002H407.909L398.398 370.298H398.227V384.002H396.114V366.548H398.159L407.705 380.287H407.875V366.548H409.955Z" fill="black"/>
<path d="M270.707 315.293L267.516 304.195L259.501 312.507L270.707 315.293ZM118.306 169.72L263.534 309.765L264.923 308.326L119.694 168.28L118.306 169.72Z" fill="#24B93C"/>
<path d="M404 420L389 411.34V428.66L404 420ZM54 421.5H390.5V418.5H54V421.5Z" fill="#24B93C"/>
<path d="M449 375L457.66 360H440.34L449 375ZM447.5 25V200H450.5V25H447.5ZM447.5 200V361.5H450.5V200H447.5Z" fill="#24B93C"/>
<path d="M9 35L0.339746 50H17.6603L9 35ZM10.5 385L10.5 210H7.5L7.5 385H10.5ZM10.5 210L10.5 48.5H7.5L7.5 210H10.5Z" fill="#24B93C"/>
</svg>
